<svg xmlns="http://www.w3.org/2000/svg" viewBox="0 0 26.9 21" fill="#fff"><g fill-rule="evenodd" clip-rule="evenodd"><path d="M.7 12.5h1v1.1c1-1.7 2.5-3.5 3-3.5H12c.5 0 2.1 1.9 3.2 3.7v-1.2h1c.4 0 .7.3.7.7 0 .4-.3.7-.7.7h-.9c.6.9.9 1.8 1 2.3v4.1c0 .4-.3.7-.7.7h-1.4c-.1-.1-.2-.2-.3-.4v-1.1H3.1v1.1l-.3.3H1.3c-.4 0-.6-.3-.6-.6v-4.2c0-.5.4-1.4.9-2.3H.7c-.4 0-.7-.3-.7-.7 0-.4.3-.7.7-.7zm1.4 2.9h2.4c.1 0 .3.1.4.2l.5.8c.1.1 0 .2-.1.2H2.9c-.1 0-.3-.1-.4-.2l-.5-.7c-.1-.2 0-.3.1-.3zm12.7 0h-2.4c-.1 0-.3.1-.4.2l-.5.8c-.1.1 0 .2.1.2H14c.1 0 .3-.1.4-.2l.5-.8c.1-.1 0-.2-.1-.2zm-9.9-4.6h7c.4 0 1.5 1.4 2.5 2.9H2.5c.9-1.5 1.9-2.9 2.4-2.9z"></path><path d="M7.5 4.5h-.7c-.6 0-1.1.3-1.1.9v.1c-.2 0-.4.2-.4.4v3c0 .2.2.4.4.4h.8c.2 0 .4-.2.4-.4v-3c0-.2-.2-.4-.4-.4h-.1c.1-.4.3-.5.6-.5h.4v4.1h1.2V3.7h14.9v7.9H16c.2 0-.1.2.1.3.7 0 1.5.3 1.6 1 .1.9-.1 1.5-1.1 1.8.5.8.6 1.3.6 1.8v.6l5.7.1c.4 0 .7-.1 1-.3-.3.5-.7.8-1.4.8h-1v.6c0 .4.3.7.7.7h1.5c.4 0 .7-.3.7-.7v-1.8c.3-.3.4-.7.4-1.2V5h.5c.4 0 .6.1.6.5h-.1c-.2 0-.4.2-.4.4v3c0 .2.2.4.4.4h.8c.2 0 .4-.2.4-.4v-3c0-.2-.2-.4-.4-.4h-.1v-.1c0-.6-.5-.9-1.1-.9h-.7V1.9c0-1-.8-1.9-1.9-1.9H9.3c-1 0-1.9.8-1.9 1.9v2.6h.1zm12.9-2H12V1.3h8.3v1.2h.1zm2.8 11.2h-2.4c-.1 0-.3.1-.4.2l-.5.8c-.1.1 0 .2.1.2h2.4c.1 0 .3-.1.4-.2l.5-.8c.1-.1.1-.2-.1-.2z"></path></g></svg>