<?xml version="1.0" encoding="UTF-8"?>
<svg width="163px" height="68px" viewBox="0 0 163 68" version="1.1" xmlns="http://www.w3.org/2000/svg" xmlns:xlink="http://www.w3.org/1999/xlink">
    <defs>
        <polygon id="path-1" points="0 67.1685 162.806 67.1685 162.806 0.0005 0 0.0005"></polygon>
    </defs>
    <g id="Page-1" stroke="none" stroke-width="1" fill="none" fill-rule="evenodd">
        <g id="d_SPS_Home_Step3" transform="translate(-744.000000, -1333.000000)">
            <g id="Carriers" transform="translate(405.000000, 1320.000000)">
                <g id="Sprint_white" transform="translate(339.000000, 13.000000)">
                    <path d="M5.8311,59.1607 C3.9401,59.1607 2.0841,58.9287 0.5791,58.5437 L0.8111,54.5647 C2.2791,55.1077 4.3251,55.5297 6.2171,55.5297 C9.0751,55.5297 11.3931,54.3357 11.3931,51.5157 C11.3931,46.0317 9.99999993e-05,48.3517 9.99999993e-05,39.9317 C9.99999993e-05,35.4497 3.5131,32.3237 9.5781,32.3237 C11.1191,32.3237 12.7041,32.5167 14.2891,32.7867 L14.0561,36.5347 C12.5501,36.0707 10.8901,35.8017 9.3451,35.8017 C6.1011,35.8017 4.4401,37.3057 4.4401,39.4697 C4.4401,44.6817 15.8331,42.7507 15.8331,50.8957 C15.8331,55.6857 12.0481,59.1607 5.8311,59.1607" id="Fill-1" fill="#FFFFFF"></path>
                    <path d="M27.8389,42.5962 C24.7499,42.5962 23.0889,46.2272 23.0889,49.5062 L23.0889,55.4162 C23.9779,55.6862 24.9429,55.8052 26.1009,55.8052 C29.3819,55.8052 31.6239,53.7952 31.6239,48.6202 C31.6239,44.7592 30.4269,42.5962 27.8389,42.5962 M25.9849,59.0422 C24.9049,59.0422 24.0949,59.0052 23.0889,58.8142 L23.0889,67.1682 L18.9599,67.1682 L18.9599,39.5832 L22.8579,39.5832 C22.8579,40.5882 22.8179,42.1332 22.6249,43.1742 L22.7039,43.1742 C23.7839,40.7422 25.9849,39.1982 28.9189,39.1982 C33.4759,39.1982 35.9859,42.4422 35.9859,48.2332 C35.9859,54.9912 32.3959,59.0422 25.9849,59.0422" id="Fill-3" fill="#FFFFFF"></path>
                    <path d="M49.2373,43.2515 C45.4113,42.5575 43.5593,45.2235 43.5593,50.9755 L43.5593,58.7735 L39.4263,58.7735 L39.4263,39.5835 L43.3673,39.5835 C43.3673,40.6645 43.2513,42.3635 42.9783,43.8335 L43.0553,43.8335 C43.9053,41.2445 45.8393,38.8485 49.4283,39.1975 L49.2373,43.2515" id="Fill-5" fill="#FFFFFF"></path>
                    <mask id="mask-2" fill="white">
                        <use xlink:href="#path-1"></use>
                    </mask>
                    <g id="Clip-8"></g>
                    <path d="M53.05,58.7735 L57.182,58.7735 L57.182,39.5835 L53.05,39.5835 L53.05,58.7735 Z M55.134,36.7265 C53.667,36.7265 52.47,35.5685 52.47,34.1395 C52.47,32.7125 53.667,31.5495 55.134,31.5495 C56.563,31.5495 57.761,32.6725 57.761,34.1395 C57.761,35.5685 56.563,36.7265 55.134,36.7265 Z" id="Fill-7" fill="#FFFFFF" mask="url(#mask-2)"></path>
                    <path d="M74.1729,58.7739 L74.1729,46.4169 C74.1729,44.0249 73.5159,42.6349 71.3179,42.6349 C68.4209,42.6349 66.2959,45.6859 66.2959,49.5059 L66.2959,58.7739 L62.1629,58.7739 L62.1629,39.5839 L66.1029,39.5839 C66.1029,40.5879 66.0269,42.2479 65.8329,43.3299 L65.8719,43.3679 C66.9909,40.8949 69.3099,39.1979 72.5519,39.1979 C76.9119,39.1979 78.2669,41.9379 78.2669,45.3359 L78.2669,58.7739 L74.1729,58.7739" id="Fill-9" fill="#FFFFFF" mask="url(#mask-2)"></path>
                    <path d="M89.6514,59.1216 C85.5574,59.1216 84.3214,57.5396 84.3214,53.2536 L84.3214,42.7896 L80.6554,42.7896 L80.6554,39.5836 L84.3214,39.5836 L84.3214,33.4816 L88.4134,32.3626 L88.4134,39.5836 L93.4714,39.5836 L93.4714,42.7896 L88.4534,42.7896 L88.4534,51.9766 C88.4534,54.8406 89.0344,55.6076 90.9614,55.6076 C91.8114,55.6076 92.7384,55.4926 93.4714,55.3006 L93.4714,58.6976 C92.3524,58.9286 90.9224,59.1216 89.6514,59.1216" id="Fill-10" fill="#FFFFFF" mask="url(#mask-2)"></path>
                    <path d="M129.3877,46.7007 C135.8387,38.3887 140.9147,28.6327 140.9147,21.6207 C140.9147,17.9587 138.2927,15.4037 134.8717,13.4587 C134.9367,21.0757 132.2997,38.9347 129.3877,46.7007" id="Fill-11" fill="#FFFFFF" mask="url(#mask-2)"></path>
                    <path d="M108.2217,67.1685 C123.3487,62.1075 145.2757,50.3185 160.5287,39.7875 C161.8037,38.9065 162.8057,38.0845 162.8057,36.6565 C162.8057,34.1675 158.2487,30.8335 156.0357,29.5035 C144.0337,41.9815 120.1537,60.6695 108.2217,67.1685" id="Fill-12" fill="#FFFFFF" mask="url(#mask-2)"></path>
                    <path d="M122.2549,56.5708 C131.5789,50.1208 145.1329,37.9908 149.7159,31.3908 C150.7959,29.8378 151.5949,28.9398 151.5949,27.3138 C151.5949,24.6498 148.4929,22.6968 146.2549,21.3408 C140.9009,33.9648 128.8649,49.6828 122.2549,56.5708" id="Fill-13" fill="#FFFFFF" mask="url(#mask-2)"></path>
                    <path d="M130.752,38.688 C131.958,30.713 131.249,21.09 129.708,15.055 C128.871,11.77 125.907,8.058 123.169,6.9 C126.76,17.098 129.845,31.623 130.752,38.688" id="Fill-14" fill="#FFFFFF" mask="url(#mask-2)"></path>
                    <path d="M128.0967,27.5044 C125.2687,19.8644 118.2237,3.9454 107.8647,0.0004 C114.6107,7.4444 124.6167,22.2144 128.0967,27.5044" id="Fill-15" fill="#FFFFFF" mask="url(#mask-2)"></path>
                    <polygon id="Fill-16" fill="#FFFFFF" mask="url(#mask-2)" points="138.5713 56.5991 138.5713 58.7741 138.2373 58.7741 138.2373 56.5991 137.5313 56.5991 137.5313 56.3191 139.2823 56.3191 139.2823 56.5991"></polygon>
                    <path d="M142.2529,58.7739 L142.0459,57.3559 C142.0059,57.0759 141.9829,56.8969 141.9699,56.7519 L141.9639,56.7519 C141.9389,56.8679 141.8969,57.0199 141.8429,57.1979 L141.3159,58.7739 L140.9599,58.7739 L140.4599,57.3009 C140.3979,57.1149 140.3329,56.9139 140.3039,56.7519 L140.2999,56.7519 C140.2859,56.9529 140.2589,57.1489 140.2319,57.3889 L140.0639,58.7739 L139.7219,58.7739 L140.0819,56.3189 L140.4919,56.3189 L141.0089,57.8639 C141.0729,58.0419 141.1189,58.2059 141.1469,58.3519 L141.1549,58.3519 C141.1919,58.1829 141.2279,58.0609 141.2859,57.8849 L141.8209,56.3189 L142.2369,56.3189 L142.6069,58.7739 L142.2529,58.7739" id="Fill-17" fill="#FFFFFF" mask="url(#mask-2)"></path>
                    <path d="M96.1709,33.2915 L95.9589,33.2915 L95.9589,33.8685 L96.0929,33.8685 C96.3969,33.8685 96.4889,33.6975 96.4889,33.5495 C96.4889,33.3695 96.4049,33.2915 96.1709,33.2915 Z M96.5039,34.8745 L95.9759,34.0555 L95.9589,34.0555 L95.9589,34.8745 L95.6709,34.8745 L95.6709,33.0585 L96.1859,33.0585 C96.6139,33.0585 96.7859,33.2365 96.7859,33.5085 C96.7859,33.8195 96.5929,34.0065 96.2959,34.0395 C96.3329,34.0855 96.4049,34.1865 96.4759,34.2975 L96.8709,34.8745 L96.5039,34.8745 Z M96.1859,32.6755 C95.4769,32.6755 94.9049,33.2505 94.9049,33.9615 C94.9049,34.6725 95.4769,35.2815 96.1859,35.2815 C96.8959,35.2815 97.4639,34.7015 97.4639,33.9935 C97.4639,33.2835 96.8959,32.6755 96.1859,32.6755 Z M96.1859,35.5925 C95.2659,35.5925 94.5699,34.8835 94.5699,33.9755 C94.5699,33.0885 95.2959,32.3625 96.1859,32.3625 C97.0979,32.3625 97.7979,33.0645 97.7979,33.9755 C97.7979,34.8525 97.0579,35.5925 96.1859,35.5925 Z" id="Fill-18" fill="#FFFFFF" mask="url(#mask-2)"></path>
                </g>
            </g>
        </g>
    </g>
</svg>