<svg xmlns="http://www.w3.org/2000/svg" xmlns:xlink="http://www.w3.org/1999/xlink" width="161" height="30" version="1.1" style=""><rect id="backgroundrect" width="100%" height="100%" x="0" y="0" fill="none" stroke="none"/>
<style type="text/css">
	.st0{fill:#767578;}
	.st1{fill:#767578;stroke:#767578;stroke-width:0.9662;}
	.st2{fill:#767578;stroke:#767578;stroke-width:1.0716;}
	.st3{fill:#767578;stroke:#767578;stroke-width:1.0185;}
	.st4{fill:#767578;stroke:#767578;stroke-width:1.0507;}
	.st5{fill:#FD0865;}
</style>

<g class="currentLayer" style=""><title>Layer 1</title><g id="svg_1" class="">
	<rect x="0" y="13.200042724609375" class="st0" width="5.900000095367432" height="5.900000095367432" id="svg_2"/>
	<rect x="17" y="13.200042724609375" class="st0" width="5.900000095367432" height="5.900000095367432" id="svg_3"/>
	<rect x="34.80000305175781" y="13.200042724609375" class="st0" width="5.900000095367432" height="5.900000095367432" id="svg_4"/>
	<rect x="52.19999694824219" y="13.200042724609375" class="st0" width="5.900000095367432" height="5.900000095367432" id="svg_5"/>
	<path class="st1" d="M87.80000305175781,1.7000305175781136 c-0.6000000000000001,0 -1.1,0.1 -1.4,0.30000000000000004 c-0.4,0.2 -0.7000000000000001,0.5 -1,0.8 c-0.2,0.30000000000000004 -0.4,0.6000000000000001 -0.5,1 c-0.1,0.30000000000000004 -0.2,0.8 -0.2,1.3 c-0.1,0.7000000000000001 -0.1,1.5 -0.1,2.5 v15.1 c0,1.4 0.1,2.5 0.2,3.1 c0.1,0.7000000000000001 0.30000000000000004,1.2 0.7000000000000001,1.6 c0.6000000000000001,0.7000000000000001 1.4,1.1 2.4,1.2 v0.4 h-10 v-0.4 c0.6000000000000001,0 1.1,-0.2 1.5,-0.30000000000000004 c0.4,-0.2 0.7000000000000001,-0.5 1,-0.8 c0.30000000000000004,-0.4 0.5,-1 0.7000000000000001,-1.7000000000000002 c0.1,-0.7000000000000001 0.2,-1.7000000000000002 0.2,-3.1 v-18.3 l-8.1,24.7 h-0.30000000000000004 l-8,-24.3 v17.9 c0,1.4 0.1,2.4 0.2,3.1 c0.1,0.7000000000000001 0.30000000000000004,1.2 0.7000000000000001,1.7000000000000002 c0.30000000000000004,0.4 0.6000000000000001,0.7000000000000001 1,0.9 c0.4,0.2 0.9,0.30000000000000004 1.4,0.30000000000000004 v0.4 h-7.2 v-0.4 c0.6000000000000001,0 1.1,-0.1 1.4,-0.30000000000000004 c0.4,-0.2 0.7000000000000001,-0.5 1,-0.9 c0.30000000000000004,-0.4 0.5,-1 0.7000000000000001,-1.7000000000000002 c0.1,-0.7000000000000001 0.2,-1.7000000000000002 0.2,-3.1 v-15.1 c0,-0.6000000000000001 0,-1.2 0,-1.8 c-0.1,-1 -0.2,-1.7000000000000002 -0.4,-2.2 c-0.30000000000000004,-0.6000000000000001 -0.6000000000000001,-1.1 -1.1,-1.4 c-0.5,-0.30000000000000004 -1.1,-0.5 -1.8,-0.5 v-0.4 h6.8 l6.8,21.9 l7,-21.9 h6.4 V1.7000305175781136 z" id="svg_6"/>
	<path class="st2" d="M89.10000305175782,19.400030517578102 c0,-2.4 0.7000000000000001,-4.5 2.1,-6.4 c1.7000000000000002,-2.3 3.8,-3.4 6.2,-3.4 c2.4,0 4.5,1.1 6.2,3.4 c1.4,1.9 2.1,4 2.1,6.4 c0,2.4 -0.7000000000000001,4.5 -2,6.3 c-1.7000000000000002,2.3 -3.7,3.4 -6.3,3.4 s-4.6,-1.1 -6.3,-3.4 c-0.7000000000000001,-0.9 -1.1,-1.9 -1.5,-3 C89.30000305175781,21.700030517578114 89.10000305175782,20.600030517578148 89.10000305175782,19.400030517578102 zM92.30000305175781,19.200030517578114 c0,2.6 0.5,4.7 1.4,6.5 c1,2 2.3,3 3.8,3 c0.6000000000000001,0 1.3,-0.2 1.9,-0.7000000000000001 c0.6000000000000001,-0.4 1.1,-1.1 1.6,-1.9 c0.5,-0.8 0.8,-1.9 1.1,-3.1 c0.30000000000000004,-1.2 0.4,-2.5 0.4,-3.6 c0,-1.2 -0.2,-2.4 -0.5,-3.7 c-0.30000000000000004,-1.2 -0.7000000000000001,-2.3 -1.2,-3.2 c-1,-1.7000000000000002 -2.2,-2.5 -3.6,-2.5 c-1.3,0 -2.5,0.9 -3.5,2.6 C92.80000305175781,14.500030517578125 92.30000305175781,16.600030517578148 92.30000305175781,19.200030517578114 z" id="svg_7"/>
	<path class="st3" d="M112.30000305175781,14.100030517578148 c0.5,-0.7000000000000001 1,-1.2 1.4,-1.5 c0.9,-0.6000000000000001 2,-1 3.2,-1 c1.8,0 3.3,0.6000000000000001 4.7,1.9 c1.6,1.6 2.5,3.8 2.5,6.7 c0,2.9 -0.8,5.2 -2.4,6.8 c-1.4,1.5 -3.1,2.2 -5.3,2.2 c-1.1,0 -2.1,-0.2 -2.8,-0.5 l-1,-0.5 c-0.30000000000000004,-0.1 -0.5,-0.2 -0.7000000000000001,-0.2 c-0.6000000000000001,0 -1.1,0.6000000000000001 -1.6,1.7000000000000002 h-0.7000000000000001 v-23.6 c0,-1.5 -0.2,-2.6 -0.6000000000000001,-3.2 c-0.4,-0.6000000000000001 -1.1,-1 -2.1,-1 v-0.5 l5.4,-0.8 V14.100030517578148 zM112.30000305175781,20.100030517578148 c0,1.4 0.1,2.7 0.2,3.9 c0.1,1.2 0.30000000000000004,2.1 0.5,2.6 c0.30000000000000004,0.7000000000000001 0.7000000000000001,1.2 1.2,1.5 c0.5,0.4 1.1,0.6000000000000001 1.8,0.6000000000000001 c1.4,0 2.6,-0.8 3.5,-2.3 c0.9,-1.5 1.4,-3.5 1.4,-5.9 c0,-1.3 -0.2,-2.4 -0.5,-3.6 c-0.30000000000000004,-1.1 -0.7000000000000001,-2.1 -1.3,-2.9 c-0.4,-0.7000000000000001 -0.9,-1.2 -1.5,-1.5 c-0.5,-0.30000000000000004 -1.1,-0.5 -1.7000000000000002,-0.5 c-0.7000000000000001,0 -1.3,0.2 -1.9,0.7000000000000001 c-0.6000000000000001,0.5 -1,1.1 -1.3,1.9 C112.5000030517578,15.800030517578136 112.30000305175781,17.600030517578148 112.30000305175781,20.100030517578148 z" id="svg_8"/>
	<path class="st3" d="M127.5000030517578,12.300030517578136 l5.1,-0.7000000000000001 v11.6 l0,1.5 c0,0.9 0,1.6 0.1,2 c0.1,0.4 0.30000000000000004,0.8 0.5,1 c0.30000000000000004,0.4 0.9,0.6000000000000001 1.8,0.8 v0.4 H127.30000305175781 v-0.4 c0.7000000000000001,-0.1 1.2,-0.30000000000000004 1.5,-0.4 c0.30000000000000004,-0.2 0.6000000000000001,-0.5 0.7000000000000001,-1 c0.1,-0.30000000000000004 0.2,-0.8 0.30000000000000004,-1.4 c0.1,-0.6000000000000001 0.1,-1.5 0.1,-2.7 V18.000030517578125 c0,-1.4 0,-2.3 -0.1,-2.9 c-0.1,-0.6000000000000001 -0.2,-1 -0.4,-1.3 c-0.2,-0.4 -0.4,-0.6000000000000001 -0.7000000000000001,-0.8 c-0.30000000000000004,-0.2 -0.7000000000000001,-0.30000000000000004 -1.2,-0.30000000000000004 V12.300030517578136 zM131.2000030517578,4.300030517578136 c-0.5,0 -0.8,-0.2 -1.2,-0.5 c-0.30000000000000004,-0.30000000000000004 -0.5,-0.8 -0.5,-1.3 c0,-0.5 0.2,-0.9 0.5,-1.3 c0.30000000000000004,-0.30000000000000004 0.7000000000000001,-0.5 1.1,-0.5 c0.5,0 0.8,0.2 1.1,0.5 c0.30000000000000004,0.30000000000000004 0.5,0.8 0.5,1.3 c0,0.5 -0.2,0.9 -0.5,1.3 C132.10000305175782,4.200030517578114 131.7000030517578,4.300030517578136 131.2000030517578,4.300030517578136 z" id="svg_9"/>
	<path class="st3" d="M137.5000030517578,1.4000305175781023 l5.1,-0.7000000000000001 v22.4 l0,1.5 c0,0.9 0,1.6 0.1,2 c0.1,0.4 0.30000000000000004,0.8 0.5,1.1 c0.30000000000000004,0.4 0.9,0.6000000000000001 1.8,0.8 v0.4 H137.3000030517578 v-0.4 c0.7000000000000001,-0.1 1.2,-0.30000000000000004 1.5,-0.5 c0.30000000000000004,-0.2 0.6000000000000001,-0.5 0.7000000000000001,-1 c0.1,-0.30000000000000004 0.2,-0.8 0.30000000000000004,-1.4 c0.1,-0.6000000000000001 0.1,-1.5 0.1,-2.7 v-15.8 c0,-1.4 0,-2.3 -0.1,-2.9 c-0.1,-0.6000000000000001 -0.2,-1 -0.4,-1.4 c-0.2,-0.4 -0.4,-0.6000000000000001 -0.7000000000000001,-0.8 c-0.30000000000000004,-0.2 -0.7000000000000001,-0.30000000000000004 -1.2,-0.30000000000000004 V1.4000305175781023 z" id="svg_10"/>
	<path class="st4" d="M150.5000030517578,17.200030517578114 c0,0.7000000000000001 -0.1,1.2 -0.1,1.5 c0,1.2 0.1,2.5 0.4,3.6 c0.30000000000000004,1.2 0.7000000000000001,2.2 1.2,3 c0.5,0.8 1.2,1.4 2,1.9 c0.8,0.5 1.6,0.7000000000000001 2.5,0.7000000000000001 c0.6000000000000001,0 1.2,-0.1 1.8,-0.4 c0.6000000000000001,-0.30000000000000004 1,-0.6000000000000001 1.4,-1.1 c0.4,-0.5 0.8,-1.3 1.1,-2.4 l0.4,0.1 c-0.30000000000000004,1.7000000000000002 -1,2.9 -2,3.8 c-1,0.9 -2.4,1.3 -4,1.3 c-1.5,0 -2.7,-0.30000000000000004 -3.7,-0.8 c-1,-0.6000000000000001 -1.9,-1.4 -2.6,-2.6 c-1,-1.6 -1.5,-3.6 -1.5,-5.9 c0,-3.2 1,-5.7 2.9,-7.5 c1.4,-1.3 3,-2 4.7,-2 c0.9,0 1.8,0.2 2.6,0.6000000000000001 c0.8,0.4 1.5,1 2,1.8 c0.9,1.2 1.3,2.7 1.3,4.5 H150.5000030517578 zM158.2000030517578,16.400030517578102 c-0.1,-1.4 -0.30000000000000004,-2.5 -0.7000000000000001,-3.3 c-0.30000000000000004,-0.7000000000000001 -0.7000000000000001,-1.2 -1.3,-1.6 c-0.5,-0.4 -1.1,-0.6000000000000001 -1.7000000000000002,-0.6000000000000001 c-1,0 -1.9,0.5 -2.7,1.6 c-0.8,1 -1.2,2.4 -1.3,3.9 H158.2000030517578 z" id="svg_11"/>
	<path class="st5" d="M14.000003051757801,26.900030517578102 h4.5 v2.2 h-13.5 v-2.2 h4.5 v-25.5 c0,0 -7.5,0 -7.5,9.8 h-1.5 v-11.2 h22.5 v11.2 h-1.5 c0,0 -0.4,-9.8 -7.5,-9.8 V26.900030517578102 z" id="svg_12"/>
</g></g></svg>