<?xml version="1.0" encoding="UTF-8"?>
<svg width="145px" height="32px" viewBox="0 0 145 32" version="1.1" xmlns="http://www.w3.org/2000/svg" xmlns:xlink="http://www.w3.org/1999/xlink">
    <g id="Page-1" stroke="none" stroke-width="1" fill="none" fill-rule="evenodd">
        <g id="d_SPS_Home_Step3" transform="translate(-453.000000, -1487.000000)" fill="#FFFFFF">
            <g id="Carriers" transform="translate(405.000000, 1320.000000)">
                <g id="Verizon_white" transform="translate(48.000000, 167.000000)">
                    <polyline id="Fill-1" points="141.570818 0 133.50352 16.9648312 130.454071 10.5272 127.157895 10.5272 132.166004 21.0526316 134.829493 21.0526316 144.842105 0 141.570818 0"></polyline>
                    <path d="M57.5333441,8.9739761 L63.92543,8.9739761 L63.92543,3.36842105 L57.5333441,3.36842105 L57.5333441,8.9739761 Z M7.24853616,31.3544105 L13.9254023,31.3544105 L21.1739385,10.7080837 L14.7800947,10.7080837 L10.7087919,23.9760961 L10.6268736,23.9760961 L6.5555709,10.7080837 L0,10.7080837 L7.24853616,31.3544105 Z M30.7000135,14.6202722 C32.9402847,14.6202722 34.4879423,16.2732459 34.7319392,18.6933358 L26.2226352,18.6933358 C26.710629,16.2325048 28.0533151,14.6202722 30.7000135,14.6202722 Z M31.0259286,27.403222 C28.2175032,27.403222 26.507767,25.5883287 26.1818518,22.8067922 L41.2059434,22.8067922 C41.2467267,18.3705411 40.0661193,14.8215401 37.5814995,12.604111 C35.83098,10.9901373 33.5101968,10.1028871 30.5790698,10.1028871 C24.3082791,10.1028871 19.9521961,14.8215401 19.9521961,20.9915507 C19.9521961,27.2023023 24.1050655,31.9596071 30.9847937,31.9596071 C33.592115,31.9596071 35.6689013,31.2750177 37.3786376,30.1057138 C39.2110754,28.8549277 40.5129781,27.0400344 40.8800282,25.2247929 L34.7730741,25.2247929 C34.1623787,26.5971057 32.8995014,27.403222 31.0259286,27.403222 Z M42.712466,31.3544105 L49.0634171,31.3544105 L49.0634171,21.8788009 C49.0634171,17.5644248 51.6686289,15.6680493 55.6597713,16.1921119 L55.7810666,16.1921119 L55.7810666,10.7484766 C55.4551514,10.6269497 55.0902108,10.5862087 54.4791638,10.5862087 C51.9945441,10.5862087 50.3259428,11.717209 48.9013384,14.1352096 L48.7782852,14.1352096 L48.7782852,10.7080837 L42.712466,10.7080837 L42.712466,31.3544105 Z M57.5333441,31.3544105 L63.92543,31.3544105 L63.92543,10.7080837 L57.5333441,10.7080837 L57.5333441,31.3544105 Z M65.6759495,31.3544105 L83.5102244,31.3544105 L83.5102244,26.394445 L73.4124795,26.394445 L73.4124795,26.274311 L83.0616077,15.5465225 L83.0616077,10.7080837 L65.6759495,10.7080837 L65.6759495,15.6680493 L75.4481309,15.6680493 L75.4481309,15.7899243 L65.6759495,26.5971057 L65.6759495,31.3544105 Z M94.78928,27.3628291 C91.7758831,27.3628291 90.1870906,24.8633463 90.1870906,21.0726846 C90.1870906,17.2416301 91.7758831,14.780799 94.78928,14.780799 C97.8005674,14.780799 99.4712782,17.2416301 99.4712782,21.0726846 C99.4712782,24.8633463 97.8005674,27.3628291 94.78928,27.3628291 Z M94.8283054,10.1436282 C88.1925742,10.1436282 83.7545729,14.861933 83.7545729,21.0726846 C83.7545729,27.2409541 88.1925742,32 94.8283054,32 C101.465795,32 105.904147,27.2409541 105.904147,21.0726846 C105.904147,14.861933 101.465795,10.1436282 94.8283054,10.1436282 Z M107.287617,31.3544105 L113.640326,31.3544105 L113.640326,19.8626397 C113.640326,17.2416301 115.186225,15.3859956 117.467632,15.3859956 C119.665362,15.3859956 120.806944,16.9188353 120.806944,19.0955234 L120.806944,31.3544105 L127.157895,31.3544105 L127.157895,17.8872195 C127.157895,13.3290933 124.388495,10.1028871 119.909359,10.1028871 C117.059798,10.1028871 115.065282,11.3129321 113.558408,13.5303612 L113.435706,13.5303612 L113.435706,10.7080837 L107.287617,10.7080837 L107.287617,31.3544105 Z" id="Fill-3"></path>
                </g>
            </g>
        </g>
    </g>
</svg>