<?xml version="1.0" encoding="UTF-8"?>
<svg width="140px" height="58px" viewBox="0 0 140 58" version="1.1" xmlns="http://www.w3.org/2000/svg" xmlns:xlink="http://www.w3.org/1999/xlink">
    <g id="Page-1" stroke="none" stroke-width="1" fill="none" fill-rule="evenodd">
        <g id="d_SPS_Home_Step3" transform="translate(-456.000000, -1341.000000)" fill="#FFFFFF">
            <g id="Carriers" transform="translate(405.000000, 1320.000000)">
                <g id="AT&amp;T_white" transform="translate(1.000000, 0.000000)">
                    <g id="At&amp;T-white" transform="translate(50.000000, 21.000000)">
                        <path d="M96.0252845,40.4834548 C96.4013834,40.4834548 96.663048,40.2244138 96.663048,39.8516405 L96.663048,21.3345365 L102.998175,21.3345365 C103.374274,21.3345365 103.634531,21.0764735 103.634531,20.7032811 L103.634531,18.1490581 C103.634531,17.7750274 103.374274,17.5162657 102.998175,17.5162657 L86.1303085,17.5162657 C85.7536465,17.5162657 85.4939525,17.7753068 85.4939525,18.1490581 L85.4939525,20.7031414 C85.4939525,21.0760543 85.7537873,21.3345365 86.1303085,21.3345365 L92.4654353,21.3345365 L92.4654353,39.8513611 C92.4654353,40.2244138 92.7266777,40.4834548 93.1023543,40.4834548 L96.0252845,40.4834548 Z M124.898616,39.6795054 C125.274433,40.0817595 125.043313,40.4834548 124.579101,40.4834548 L120.904817,40.4834548 C120.413299,40.4834548 120.15276,40.368046 119.834653,39.9944345 L117.63591,37.5839834 C116.160792,39.5362923 114.104775,41 110.691593,41 C106.4678,41 103.139634,38.4738607 103.139634,34.1398831 C103.139634,30.8085369 104.934409,29.0282235 107.654369,27.5357334 C106.322399,26.0143213 105.716165,24.4065622 105.716165,23.0005589 C105.716165,19.4397923 108.232875,17 112.022296,17 C115.899268,17 118.272266,19.2687749 118.272266,22.6269473 C118.272266,25.4977761 116.189506,27.1039983 113.989918,28.3106211 L117.230815,31.7854598 L119.053319,28.6263885 C119.284439,28.253755 119.545119,28.1097036 120.007219,28.1097036 L122.813041,28.1097036 C123.27669,28.1097036 123.537087,28.4263093 123.248679,28.9140721 L120.007782,34.4253313 L124.898616,39.6795054 Z M112.08071,20.5592297 C110.576736,20.5592297 109.708838,21.50751 109.708838,22.7704399 C109.708838,23.7463847 110.228507,24.6077591 111.415217,25.8712479 C113.469263,24.6934075 114.337725,23.9760846 114.337725,22.7132944 C114.337725,21.5353143 113.585809,20.5592297 112.08071,20.5592297 Z M110.779002,37.3823673 C112.629938,37.3823673 113.87464,36.4938872 114.887376,34.9716368 L110.201201,29.9758051 C108.406567,30.9813707 107.248712,31.9848404 107.248712,33.9951331 C107.248993,35.9762243 108.868386,37.3823673 110.779002,37.3823673 Z M88.3054043,39.7353934 C88.4508048,40.1094241 88.2188397,40.4834548 87.8137451,40.4834548 L84.8053762,40.4834548 C84.3711453,40.4834548 84.1106067,40.2830962 83.965347,39.8793051 L82.2591079,35.0005589 L72.9150492,35.0005589 L71.2057135,39.8793051 C71.0621428,40.2832359 70.8007597,40.4834548 70.3676548,40.4834548 L67.5332598,40.4834548 C67.1565979,40.4834548 66.8957778,40.1092844 67.0406153,39.7353934 L74.8809823,18.0916331 C75.026242,17.6884009 75.2863583,17.5172438 75.7194632,17.5172438 L79.5964347,17.5172438 C80.0308064,17.5172438 80.3203407,17.6885406 80.4647559,18.0916331 L88.3054043,39.7353934 Z M80.9275602,31.2387351 L77.6010837,21.7657127 L74.2449078,31.2387351 L80.9275602,31.2387351 Z M129.469653,40.4834548 C129.093132,40.4834548 128.833579,40.2244138 128.833579,39.8516405 L128.833579,21.3345365 L122.496622,21.3345365 C122.11996,21.3345365 121.859985,21.0764735 121.859985,20.7032811 L121.859985,18.1490581 C121.859985,17.7750274 122.120101,17.5162657 122.496622,17.5162657 L139.364489,17.5162657 C139.740869,17.5162657 140,17.7753068 140,18.1490581 L140,20.7031414 C140,21.0760543 139.740869,21.3345365 139.364489,21.3345365 L133.028095,21.3345365 L133.028095,39.8513611 C133.028095,40.2244138 132.767275,40.4834548 132.39188,40.4834548 L129.469653,40.4834548 Z" id="Fill-1"></path>
                        <path d="M43.8340227,4.08878574 C39.4879543,1.48267515 34.4410481,0 29.0000705,0 C23.5211527,0 18.3222032,1.53445872 13.9604791,4.20956704 C12.6521734,5.01510496 11.9157931,5.66063587 11.9157931,6.49044293 C11.9157931,8.93654651 17.63011,11.566644 27.7680686,11.566644 C37.8008098,11.566644 45.5823795,8.68581243 45.5823795,5.91278095 C45.5823795,5.25088248 45.0041072,4.78779342 43.8340227,4.08878574 M48.1511776,7.31023191 C48.2730379,7.50128084 48.333827,7.70516984 48.333827,7.97960867 C48.333827,11.2017603 38.47626,16.9019041 22.7843492,16.9019041 C11.2544471,16.9019041 9.09579914,12.622916 9.09579914,9.90166814 C9.09579914,8.92892713 9.46871421,7.93361018 10.2900018,6.92277227 C10.3348532,6.86266382 10.2967718,6.83952347 10.2450094,6.88425206 C8.74714329,8.15414894 7.37085537,9.58306512 6.16353578,11.1255665 C5.58667396,11.8550517 5.2285683,12.5012881 5.2285683,12.8884656 C5.2285683,18.5277954 19.3632342,22.6165812 32.5795757,22.6165812 C46.661774,22.6165812 52.9466059,18.0175791 52.9466059,13.9759206 C52.9466059,12.5314835 52.3845535,11.6882719 50.9467712,10.0534914 C50.0134963,8.99002328 49.1307143,8.12409471 48.196311,7.27171171 C48.1511776,7.2344614 48.1197252,7.26479783 48.1511776,7.31023191 M2.7957347,16.5588909 C1.94525138,18.2474304 1.0025266,21.0960913 0.722276126,22.5704416 C0.599428537,23.2021447 0.651755122,23.505509 0.873191075,23.9769229 C2.65215393,27.7528907 11.650493,33.7944957 32.6400827,33.7944957 C45.4452866,33.7944957 55.3926974,30.6472679 57.0042434,24.9040887 C57.3009958,23.846829 57.3169336,22.7305897 56.935697,21.2264674 C56.5097501,19.5456883 55.7120165,17.585673 55.0368484,16.209387 C55.0145638,16.1645173 54.9752131,16.171149 54.9832525,16.2242025 C55.2340252,23.7569485 34.236114,28.6117643 23.6414615,28.6117643 C12.1655785,28.6117643 2.59150587,24.0375958 2.59150587,18.2618226 C2.59150587,17.7068776 2.70631406,17.1517916 2.84961274,16.5741296 C2.86399903,16.5213584 2.81886558,16.5126102 2.7957347,16.5588909 M23.1710864,40.626823 C8.32867165,40.626823 1.33016718,33.7112469 0.0606480637,28.9918868 C0.0449924008,28.9235945 0,28.9385511 0,28.9999295 C0,30.5887115 0.158954344,32.6390306 0.432434798,33.9999367 C0.562898656,34.6623996 1.10182017,35.7020219 1.8919375,36.5307001 C5.48596997,40.278448 14.4463688,45.5298949 29.9643747,45.5298949 C51.106995,45.5298949 55.9412098,38.4842248 56.9283628,36.1672274 C57.6342781,34.5101531 58,31.5155952 58,29.0000705 C58,28.3913666 57.9847675,27.9051372 57.9617776,27.4277971 C57.9617776,27.3503334 57.9169263,27.3439839 57.9014116,27.4194722 C56.8448659,33.0889974 38.7809107,40.626823 23.1710864,40.626823 M30.9683118,53.3873112 C38.1047553,53.3873112 45.946832,51.4411237 50.637043,47.5886799 C51.9205253,46.5390396 53.1430774,45.1420119 54.2379865,43.26454 C54.8683032,42.184281 55.4847979,40.9008386 55.9869074,39.6392666 C56.009192,39.5777471 55.9712517,39.547834 55.92499,39.6169728 C51.5634069,46.0381358 38.9332361,50.0432495 25.8919278,50.0432495 C16.6738452,50.0432495 6.75534805,47.0942667 2.87217946,41.4634029 C2.83395708,41.4113371 2.7957347,41.4336309 2.81900663,41.4934571 C6.43645206,49.1853636 17.4109308,53.3873112 30.9683118,53.3873112 M11.2166478,51.9049183 C16.1332312,55.7123513 22.3043832,58 28.9997884,58 C36.3267797,58 43.0063882,55.278611 48.1042106,50.811396 C48.165987,50.7567904 48.1355219,50.7206689 48.0745918,50.7567904 C45.7870314,52.2851819 39.2672235,55.6214832 29.0000705,55.6214832 C20.077471,55.6214832 14.4387525,53.6298616 11.2544471,51.8517237 C11.1935169,51.8216695 11.1709502,51.8673858 11.2166478,51.9049183" id="Fill-3"></path>
                    </g>
                </g>
            </g>
        </g>
    </g>
</svg>