<svg fill="#FFF" xmlns="http://www.w3.org/2000/svg"><g fill-rule="evenodd"><path d="M13.295 29.06h116.639c.758 0 1.372.632 1.372 1.41 0 .163-.027.323-.077.469-1.433 5.085-4.078 10.125-7.663 14.01-3.249 3.522-7.277 6.105-11.886 6.948-.08.015-.158.022-.237.022v.002H1.653c-.758 0-1.372-.633-1.372-1.41 0-.304.093-.582.25-.814L12.122 29.75c.256-.44.708-.684 1.173-.684v-.005zm114.766 2.82H14.068L4.064 49.1h107.264c3.939-.752 7.42-3.012 10.257-6.09 2.87-3.11 5.087-7.05 6.476-11.13zM20.002 9.653h66.7c.395 0 .75.162 1.008.424l15.47 15.132a1.411 1.411 0 01-.986 2.418H20.002c-.778 0-1.41-.632-1.41-1.41V11.063c0-.78.632-1.41 1.41-1.41zm66.126 2.82H21.412v12.334h77.325L86.128 12.473z"></path><path d="M94.915 17.125l2.82 2.759a1.41 1.41 0 01-.985 2.416v.001H79.31c-.778 0-1.41-.631-1.41-1.41v-3.925c0-.78.632-1.41 1.41-1.41h12.712c.304 0 .586.096.817.26l1.823 1.116c.093.057.176.123.25.195l.003-.002zm-1.623 2.356l-.245-.24-1.414-.865H80.72v1.105h12.572zM18.592 20.891v-3.926c0-.778.631-1.41 1.41-1.41h13.613c.778 0 1.41.632 1.41 1.41v3.926c0 .78-.632 1.41-1.41 1.41H20.002a1.41 1.41 0 01-1.41-1.41zm2.82-1.41h10.792v-1.106H21.411v1.106zM7.773.093h54.026c.407 0 .774.172 1.032.448l10.588 9.476a1.405 1.405 0 01-.937 2.45v.006H21.388a1.41 1.41 0 01-1.387 1.152h-.07a1.41 1.41 0 01-1.409-1.41V9.144H12.28a1.41 1.41 0 01-1.193-.658L6.634 2.328A1.407 1.407 0 017.773.096V.093zm53.496 2.82h-50.74l2.466 3.411h6.936c.78 0 1.41.632 1.41 1.41v1.92H68.8l-7.531-6.742zM45.51 15.555h21.905c.777 0 1.41.632 1.41 1.41v3.926c0 .78-.633 1.41-1.41 1.41H45.51c-.778 0-1.41-.63-1.41-1.41v-3.925c0-.78.632-1.41 1.41-1.41zm1.409 3.926h19.085v-1.106H46.92v1.106z"></path></g></svg>