<svg fill="#FFF" xmlns="http://www.w3.org/2000/svg"><g fill-rule="evenodd"><path d="M3.938 12.528l87.076 1.84c1.21.025 2.8.552 4.101 1.738.987.9 1.826 2.18 2.224 3.903.517 2.237.56 4.47.269 6.697h-.002c-.283 2.188-.886 4.355-1.664 6.508-.308.85-.74 1.701-1.374 2.369-.725.766-1.669 1.27-2.905 1.27h-8.131l.326-1.616c.049-.245.088-.504.115-.77.022-.227.034-.489.034-.782a7.795 7.795 0 00-2.287-5.533h-.004a7.802 7.802 0 00-5.534-2.292 7.8 7.8 0 00-5.532 2.287l-.005.005a7.795 7.795 0 00-2.287 5.533c0 .293.012.555.034.782.026.266.066.525.115.77l.326 1.616H28.876l.326-1.616c.05-.245.088-.504.115-.77.022-.227.035-.489.035-.782a7.8 7.8 0 00-2.287-5.533h-.005a7.804 7.804 0 00-5.534-2.292 7.8 7.8 0 00-5.532 2.287l-.005.005a7.795 7.795 0 00-2.287 5.533c0 .293.013.555.035.782.026.266.066.525.115.77l.326 1.616H6.292c-1.113 0-2.497-.435-3.582-1.119C1.635 35.055.787 34.091.601 32.97c-.34-2.052-.516-3.706-.393-5.047.12-1.327.52-2.358 1.295-3.138.002-.778-.038-1.62-.078-2.484-.145-3.163-.3-6.56 1.347-9.15l.407-.64.759.017zm87.024 4.532L4.71 15.236c-.827 1.874-.707 4.492-.593 6.95.051 1.125.102 2.224.067 3.266l-.023.666-.537.385c-.44.316-.664.863-.737 1.661-.097 1.068.065 2.52.373 4.374.046.28.408.615.886.917.676.424 1.504.697 2.146.697h4.721a10.498 10.498 0 013.071-7.904l.004-.004h.002a10.494 10.494 0 017.436-3.086c2.905 0 5.539 1.18 7.443 3.085l-.002.001a10.5 10.5 0 013.074 7.908h33.628a10.495 10.495 0 013.072-7.904l.002-.004h.002a10.494 10.494 0 017.437-3.086c2.906 0 5.538 1.18 7.442 3.085l-.002.001a10.5 10.5 0 013.074 7.908h4.967c.4 0 .71-.17.953-.426.338-.355.594-.88.793-1.432.72-1.99 1.273-3.972 1.529-5.931v-.005c.25-1.919.215-3.838-.227-5.748-.259-1.123-.79-1.944-1.41-2.51-.781-.711-1.68-1.028-2.34-1.04z"></path><path d="M97.434 20.463a17.93 17.93 0 01.352 3.506 21.176 21.176 0 01-.283 3.454l-.226 1.405-1.383-.296c-1.293-.277-2.42-.83-3.231-1.563-.905-.818-1.44-1.855-1.44-3.007 0-1.136.525-2.164 1.416-2.978.8-.732 1.913-1.288 3.186-1.57l1.337-.298.272 1.347zm-2.34 3.506c0-.47-.023-.941-.066-1.413-.218.124-.41.262-.574.411-.332.305-.53.651-.53.995 0 .347.202.695.543 1.002.165.15.357.286.573.41.038-.47.056-.939.055-1.405zM21.527 23.158c2.905 0 5.538 1.18 7.442 3.085l-.002.001a10.5 10.5 0 013.087 7.441c0 2.904-1.18 5.537-3.085 7.443a10.497 10.497 0 01-7.442 3.083c-2.901 0-5.532-1.18-7.44-3.087l-.002.004A10.497 10.497 0 0111 33.685c0-2.9 1.18-5.531 3.085-7.438l.002-.003.002-.001a10.499 10.499 0 017.438-3.085zm5.532 4.994a7.803 7.803 0 00-5.532-2.29 7.794 7.794 0 00-5.532 2.285l-.005.005a7.795 7.795 0 00-2.287 5.533 7.8 7.8 0 002.292 5.533v.004a7.79 7.79 0 005.532 2.287c2.16 0 4.118-.876 5.532-2.291a7.8 7.8 0 002.292-5.533 7.799 7.799 0 00-2.286-5.533h-.006zM76.183 23.158c2.904 0 5.537 1.18 7.442 3.085l-.002.001a10.5 10.5 0 013.087 7.441c0 2.904-1.181 5.537-3.085 7.443a10.499 10.499 0 01-7.442 3.083c-2.902 0-5.533-1.18-7.44-3.087l-.003.004a10.502 10.502 0 01-3.084-7.443 10.5 10.5 0 013.084-7.438l.003-.003.002-.001a10.499 10.499 0 017.438-3.085zm5.532 4.994a7.803 7.803 0 00-5.532-2.29 7.794 7.794 0 00-5.533 2.285l-.006.005a7.799 7.799 0 00-2.285 5.533 7.8 7.8 0 002.291 5.533v.004a7.79 7.79 0 005.533 2.287c2.16 0 4.118-.876 5.532-2.291a7.8 7.8 0 002.292-5.533 7.795 7.795 0 00-2.287-5.533h-.005zM19.513 1.084C23.263.372 29.963-.023 37.155.011c6.562.03 13.546.415 19.083 1.233l.56.222 18.764 12.74-.775 2.46L3.774 15.33l-2.065-.039.861-1.87c.178-.386.366-.892.561-1.418h.006c.682-1.84 1.47-3.964 3.593-5.78 1.426-1.222 3.314-2.222 5.323-3.021 2.518-1.002 5.241-1.698 7.46-2.119m17.63 1.617c-7.022-.033-13.53.346-17.134 1.03-2.086.397-4.634 1.046-6.964 1.974-1.751.697-3.378 1.55-4.564 2.565-1.503 1.287-2.174 2.937-2.723 4.406l64.548 1.212L55.55 3.872c-5.395-.776-12.107-1.14-18.407-1.17"></path><path d="M45.596 1.784l-.243 12.978-2.692-.041.243-12.978zM28.54 2.578l-7.574 12.825-2.322-1.372L26.22 1.206zM2.691 21.46a1.346 1.346 0 010-2.69l4.59.004a1.346 1.346 0 010 2.69l-4.59-.004z"></path></g></svg>