<svg fill="#FFF" xmlns="http://www.w3.org/2000/svg"><path d="M1.295 5.006H17.28V0h66.178v15.006h19.389v65.137H87.436V77.55h12.819V62.574h-5.993v-2.589h5.993V48.253H76.564v-2.59h3.382V30.799h5.971v2.351h-3.38v12.334h17.605V33.15h-8.156V30.56h8.269V17.598H83.269v.06h-2.59V2.592H46.746V17.32h-2.589V2.592H19.87v5.095h-.016V33.84h-2.59V18.205h-3.406v-2.592h3.407V7.687H2.654v7.926h6.65v2.592h-6.65v23.073h14.238V43.7h.037v.168h-.016v5.146h-2.589v-5.146H2.654v16.236h11.67v-5.025h2.59v5.025h3.77v2.589H0V5.006h1.295zM78.393 77.99a1.299 1.299 0 00-.818-.335v-.105H76.8v-5.728h-2.59v5.728h-9.202V62.574h9.202v4.081h2.59v-4.08h11.395v-2.59H65.007V48.253h5.489v-2.59h-5.489v-.007h-7.441v-7.153h-2.592v7.153h-.062v3.627h-8.105V30.798h8.167v2.538h2.592v-2.538h2.309v-2.592h-13.13v-4.82h-2.589v7.412h.062v10.356H31.771v18.95h-6.537v2.589h9.13v-18.95h9.73v8.13h.124v.25h13.348v-3.875h4.852v31.968h14.38v-.073h.117l4.976 4.52c.526.48 1.345.442 1.826-.083a1.292 1.292 0 00-.087-1.826l-5.237-4.763z" fill-rule="evenodd"></path></svg>