<svg fill="#FFF" xmlns="http://www.w3.org/2000/svg"><path d="M54.891 56.062h7.85v2.826h-7.85v13.287h22.325V58.888H70.6v-2.826h6.616V50.1h.07a1.405 1.405 0 01.445-1.224l5.652-5.197a1.38 1.38 0 011.968.094 1.424 1.424 0 01-.09 1.992L80.01 50.59V75H30.777V55.798H0V0h54.749v19.865h25.26v20.173h-2.793V22.69H54.89v6.312h-2.94V2.825H31.145v6.313h-2.798V2.825H2.794V25.8h25.552v-8.716h2.798v11.545H23.75v8.76h-2.798v-8.76H2.794v24.343h18.16v-7.637h2.797v7.637h7.026v-9.361h9.037v2.825h-6.24v25.739h18.16V46.436h-4.058v-2.825h4.276v-6.663h2.94v19.114" fill-rule="evenodd"></path></svg>