<svg fill="#FFF" xmlns="http://www.w3.org/2000/svg"><g fill-rule="evenodd"><path d="M6.892.774h86.583V.768c1.261 0 2.409.517 3.24 1.347a4.577 4.577 0 011.348 3.24V9.97c0 1.26-.518 2.408-1.349 3.24h-.005a4.576 4.576 0 01-3.234 1.348h-8.92c.304.485.742 1.067 1.285 1.714 2.968 3.541 8.696 8.532 12.644 10.073h-.001c1.177.46 2.17.953 2.638 1.685.473.737.325 1.55.325 2.679v14.832c0 1.77-.726 3.38-1.894 4.549l-.005.004A6.428 6.428 0 0195 51.99h-8.16l-.025-1.295a7.597 7.597 0 00-2.285-5.285 7.593 7.593 0 00-5.33-2.172c-2.079 0-3.961.83-5.331 2.172a7.597 7.597 0 00-2.286 5.285l-.025 1.295H28.411l-.026-1.295A7.597 7.597 0 0026.1 45.41a7.593 7.593 0 00-5.33-2.172 7.59 7.59 0 00-5.33 2.172 7.592 7.592 0 00-2.286 5.285l-.025 1.295H6.892a6.432 6.432 0 01-4.55-1.896l-.003.002a6.428 6.428 0 01-1.894-4.554V7.215c0-1.767.726-3.38 1.894-4.549l.002-.002.002-.002A6.434 6.434 0 016.893.768v.006zM93.475 3.39l-86.583.001v.006a3.802 3.802 0 00-2.696 1.117l-.004.005a3.804 3.804 0 00-1.118 2.695v38.327a3.81 3.81 0 001.122 2.696v.004a3.802 3.802 0 002.696 1.118h3.75a10.212 10.212 0 012.96-5.82 10.213 10.213 0 017.168-2.932c2.786 0 5.318 1.12 7.168 2.932a10.22 10.22 0 012.96 5.82H69.07a10.22 10.22 0 012.96-5.82 10.213 10.213 0 017.168-2.932c2.786 0 5.319 1.12 7.168 2.932a10.22 10.22 0 012.96 5.82H95a3.82 3.82 0 002.695-1.118l.005-.005a3.816 3.816 0 001.117-2.695V30.71c0-.64-.035-1.048-.172-1.262-.14-.219-.483-.415-1.11-.66h-.005c-4.346-1.696-10.533-7.05-13.702-10.83-.804-.96-1.437-1.849-1.822-2.584-.605-1.157-.662-2.144-.02-2.846.32-.351.752-.554 1.303-.592l.088-.006h10.099c.536 0 1.029-.221 1.383-.574l-.002-.003c.356-.355.578-.846.578-1.382V5.355c0-.536-.222-1.026-.577-1.382a1.953 1.953 0 00-1.382-.576V3.39z"></path><path d="M101.446 30.55v8.57H93.461c-.886 0-1.692-.363-2.274-.945v-.004a3.208 3.208 0 01-.944-2.268v-3.45c0-.885.362-1.69.944-2.272a3.211 3.211 0 012.273-.945H101.446v1.315zm-2.629 5.941v-4.626H93.46a.592.592 0 00-.587.588v3.45c0 .163.065.311.17.418l.003-.003a.587.587 0 00.414.173h5.357zM52.866 51.99H35.119V11.704h19.062v40.284h-1.315zm-15.118-2.63H51.55V14.335H37.748V49.36zM.445 27.254V11.265H31.538v17.303H.445v-1.314zm2.629-1.315h25.834V13.894H3.074v12.045zM59.791 11.596h16.633l.377.677 7.877 14.18 1.084 1.95H58.476V11.596h1.315zm15.097 2.628H61.106v11.55h20.2l-6.418-11.55z"></path><path d="M.445 27.254V11.265H17.248v17.303H.445v-1.314zm2.629-1.315h11.545V13.894H3.074v12.045zM20.77 40.609a10.21 10.21 0 017.24 3l-.002.003a10.211 10.211 0 013.004 7.239c0 2.826-1.149 5.387-3.001 7.24a10.213 10.213 0 01-7.241 3 10.217 10.217 0 01-7.239-3.002l-.002.003a10.216 10.216 0 01-3.001-7.241c0-2.82 1.148-5.382 3-7.237l.003-.002.002-.002a10.214 10.214 0 017.237-3.001zm5.382 4.858a7.588 7.588 0 00-5.382-2.23 7.58 7.58 0 00-5.383 2.225l-.006.005a7.588 7.588 0 00-2.224 5.384 7.59 7.59 0 002.23 5.382v.005a7.58 7.58 0 005.383 2.225 7.588 7.588 0 005.382-2.23 7.59 7.59 0 002.23-5.382c0-2.107-.85-4.01-2.224-5.384h-.006zM79.198 40.609a10.21 10.21 0 017.24 3l-.001.003a10.211 10.211 0 013.003 7.239c0 2.826-1.148 5.387-3.001 7.24a10.213 10.213 0 01-7.241 3 10.217 10.217 0 01-7.239-3.002l-.002.003a10.216 10.216 0 01-3.001-7.241c0-2.82 1.148-5.382 3.001-7.237l.002-.002.003-.002a10.214 10.214 0 017.236-3.001zm5.383 4.858a7.588 7.588 0 00-5.383-2.23 7.58 7.58 0 00-5.383 2.225l-.005.005a7.588 7.588 0 00-2.224 5.384 7.59 7.59 0 002.23 5.382v.005a7.58 7.58 0 005.382 2.225 7.588 7.588 0 005.383-2.23 7.59 7.59 0 002.23-5.382c0-2.107-.851-4.01-2.225-5.384h-.005z"></path></g></svg>