<?xml version="1.0" encoding="UTF-8"?>
<svg width="162px" height="31px" viewBox="0 0 162 31" version="1.1" xmlns="http://www.w3.org/2000/svg" xmlns:xlink="http://www.w3.org/1999/xlink">
    <g id="Page-1" stroke="none" stroke-width="1" fill="none" fill-rule="evenodd">
        <g id="d_SPS_Home_Step3" transform="translate(-1044.000000, -1355.000000)">
            <g id="Carriers" transform="translate(405.000000, 1320.000000)">
                <g id="T_Mobile_white" transform="translate(639.000000, 35.000000)">
                    <polygon id="Fill-1" fill="#FFFFFF" points="0 19.2749 5.89 19.2749 5.89 13.3849 0 13.3849"></polygon>
                    <polygon id="Fill-2" fill="#FFFFFF" points="17.013 19.2749 22.903 19.2749 22.903 13.3849 17.013 13.3849"></polygon>
                    <polygon id="Fill-3" fill="#FFFFFF" points="34.827 19.2749 40.717 19.2749 40.717 13.3849 34.827 13.3849"></polygon>
                    <polygon id="Fill-4" fill="#FFFFFF" points="52.277 19.2749 58.167 19.2749 58.167 13.3849 52.277 13.3849"></polygon>
                    <path d="M87.836,1.8296 C87.24,1.8706 86.763,1.9766 86.403,2.1466 C86.042,2.3176 85.711,2.6006 85.409,2.9966 C85.18,3.2836 85.006,3.6016 84.893,3.9496 C84.776,4.2976 84.699,4.7376 84.657,5.2706 C84.584,5.9806 84.547,6.8196 84.547,7.7896 L84.547,22.8836 C84.547,24.2896 84.609,25.3346 84.735,26.0166 C84.86,26.7006 85.085,27.2466 85.409,27.6556 C85.982,28.3796 86.791,28.7756 87.836,28.8436 L87.836,29.2886 L77.847,29.2886 L77.847,28.8436 C78.451,28.8026 78.94,28.6896 79.31,28.5056 C79.681,28.3216 80.013,28.0376 80.304,27.6556 C80.628,27.2186 80.85,26.6626 80.971,25.9866 C81.09,25.3106 81.15,24.2766 81.15,22.8836 L81.15,4.5736 L73.087,29.2886 L72.758,29.2886 L64.743,4.9426 L64.743,22.8836 C64.743,24.2896 64.804,25.3276 64.923,25.9966 C65.043,26.6656 65.265,27.2186 65.589,27.6556 C65.881,28.0516 66.212,28.3386 66.582,28.5156 C66.953,28.6936 67.437,28.8026 68.031,28.8436 L68.031,29.2886 L60.819,29.2886 L60.819,28.8436 C61.415,28.8026 61.898,28.6936 62.268,28.5156 C62.639,28.3386 62.97,28.0516 63.263,27.6556 C63.585,27.2186 63.808,26.6626 63.928,25.9866 C64.048,25.3106 64.107,24.2766 64.107,22.8836 L64.107,7.7896 C64.107,7.1616 64.093,6.5676 64.062,6.0076 C64.009,4.9976 63.889,4.2606 63.701,3.7956 C63.44,3.1546 63.082,2.6796 62.629,2.3726 C62.175,2.0646 61.571,1.8846 60.819,1.8296 L60.819,1.3836 L67.61,1.3836 L74.383,23.2526 L81.403,1.3836 L87.836,1.3836 L87.836,1.8296 Z" id="Fill-5" fill="#FFFFFF"></path>
                    <path d="M87.836,1.8296 C87.24,1.8706 86.763,1.9766 86.403,2.1466 C86.042,2.3176 85.711,2.6006 85.409,2.9966 C85.18,3.2836 85.006,3.6016 84.893,3.9496 C84.776,4.2976 84.699,4.7376 84.657,5.2706 C84.584,5.9806 84.547,6.8196 84.547,7.7896 L84.547,22.8836 C84.547,24.2896 84.609,25.3346 84.735,26.0166 C84.86,26.7006 85.085,27.2466 85.409,27.6556 C85.982,28.3796 86.791,28.7756 87.836,28.8436 L87.836,29.2886 L77.847,29.2886 L77.847,28.8436 C78.451,28.8026 78.94,28.6896 79.31,28.5056 C79.681,28.3216 80.013,28.0376 80.304,27.6556 C80.628,27.2186 80.85,26.6626 80.971,25.9866 C81.09,25.3106 81.15,24.2766 81.15,22.8836 L81.15,4.5736 L73.087,29.2886 L72.758,29.2886 L64.743,4.9426 L64.743,22.8836 C64.743,24.2896 64.804,25.3276 64.923,25.9966 C65.043,26.6656 65.265,27.2186 65.589,27.6556 C65.881,28.0516 66.212,28.3386 66.582,28.5156 C66.953,28.6936 67.437,28.8026 68.031,28.8436 L68.031,29.2886 L60.819,29.2886 L60.819,28.8436 C61.415,28.8026 61.898,28.6936 62.268,28.5156 C62.639,28.3386 62.97,28.0516 63.263,27.6556 C63.585,27.2186 63.808,26.6626 63.928,25.9866 C64.048,25.3106 64.107,24.2766 64.107,22.8836 L64.107,7.7896 C64.107,7.1616 64.093,6.5676 64.062,6.0076 C64.009,4.9976 63.889,4.2606 63.701,3.7956 C63.44,3.1546 63.082,2.6796 62.629,2.3726 C62.175,2.0646 61.571,1.8846 60.819,1.8296 L60.819,1.3836 L67.61,1.3836 L74.383,23.2526 L81.403,1.3836 L87.836,1.3836 L87.836,1.8296 Z" id="Stroke-7" stroke="#FFFFFF" stroke-width="0.966"></path>
                    <path d="M92.334,19.3179 C92.334,21.8879 92.795,24.0669 93.717,25.8539 C94.756,27.8479 96.026,28.8449 97.527,28.8449 C98.165,28.8449 98.785,28.6239 99.389,28.1799 C99.99,27.7369 100.511,27.1169 100.948,26.3189 C101.409,25.4919 101.781,24.4549 102.064,23.2059 C102.348,21.9579 102.49,20.7509 102.49,19.5839 C102.49,18.3729 102.34,17.1509 102.038,15.9169 C101.736,14.6839 101.332,13.6249 100.824,12.7379 C99.855,11.0689 98.668,10.2349 97.262,10.2349 C95.926,10.2349 94.773,11.1129 93.805,12.8709 C92.824,14.6289 92.334,16.7779 92.334,19.3179 M89.115,19.5729 C89.115,17.1789 89.823,15.0429 91.24,13.1649 C92.964,10.8889 95.024,9.7509 97.421,9.7509 C99.817,9.7509 101.872,10.8889 103.584,13.1649 C105,15.0569 105.709,17.2009 105.709,19.5949 C105.709,21.9609 105.035,24.0669 103.689,25.9139 C102.037,28.1909 99.947,29.3289 97.421,29.3289 C94.895,29.3289 92.799,28.1909 91.135,25.9139 C90.484,25.0279 89.986,24.0369 89.638,22.9429 C89.289,21.8489 89.115,20.7259 89.115,19.5729" id="Fill-9" fill="#FFFFFF"></path>
                    <path d="M92.334,19.3179 C92.334,21.8879 92.795,24.0669 93.717,25.8539 C94.756,27.8479 96.026,28.8449 97.527,28.8449 C98.165,28.8449 98.785,28.6239 99.389,28.1799 C99.99,27.7369 100.511,27.1169 100.948,26.3189 C101.409,25.4919 101.781,24.4549 102.064,23.2059 C102.348,21.9579 102.49,20.7509 102.49,19.5839 C102.49,18.3729 102.34,17.1509 102.038,15.9169 C101.736,14.6839 101.332,13.6249 100.824,12.7379 C99.855,11.0689 98.668,10.2349 97.262,10.2349 C95.926,10.2349 94.773,11.1129 93.805,12.8709 C92.824,14.6289 92.334,16.7779 92.334,19.3179 Z M89.115,19.5729 C89.115,17.1789 89.823,15.0429 91.24,13.1649 C92.964,10.8889 95.024,9.7509 97.421,9.7509 C99.817,9.7509 101.872,10.8889 103.584,13.1649 C105,15.0569 105.709,17.2009 105.709,19.5949 C105.709,21.9609 105.035,24.0669 103.689,25.9139 C102.037,28.1909 99.947,29.3289 97.421,29.3289 C94.895,29.3289 92.799,28.1909 91.135,25.9139 C90.484,25.0279 89.986,24.0369 89.638,22.9429 C89.289,21.8489 89.115,20.7259 89.115,19.5729 Z" id="Stroke-11" stroke="#FFFFFF" stroke-width="1.072"></path>
                    <path d="M112.2901,20.2715 C112.2901,21.7005 112.3601,23.0165 112.5011,24.2185 C112.6421,25.4205 112.8231,26.2945 113.0461,26.8425 C113.3151,27.4965 113.7171,28.0105 114.2501,28.3845 C114.7831,28.7585 115.3901,28.9455 116.0691,28.9455 C117.4991,28.9455 118.6801,28.1715 119.6111,26.6225 C120.5431,25.0735 121.0091,23.1035 121.0091,20.7125 C121.0091,19.4575 120.8561,18.2655 120.5521,17.1365 C120.2471,16.0075 119.8131,15.0495 119.2511,14.2615 C118.8061,13.6075 118.3131,13.1095 117.7741,12.7695 C117.2351,12.4285 116.6851,12.2585 116.1221,12.2585 C115.4421,12.2585 114.8101,12.4955 114.2241,12.9695 C113.6381,13.4435 113.2041,14.0615 112.9231,14.8225 C112.5011,15.9445 112.2901,17.7605 112.2901,20.2715 Z M112.2901,14.2015 C112.7841,13.5125 113.2551,13.0015 113.7021,12.6705 C114.6081,12.0215 115.6921,11.6955 116.9521,11.6955 C118.7411,11.6955 120.3001,12.3425 121.6301,13.6365 C123.2781,15.2245 124.1031,17.4645 124.1031,20.3595 C124.1031,23.2535 123.3111,25.5355 121.7311,27.2025 C120.3641,28.6565 118.6121,29.3835 116.4771,29.3835 C115.3561,29.3835 114.4071,29.2095 113.6301,28.8635 L112.6391,28.4045 C112.3671,28.2845 112.1261,28.2245 111.9131,28.2245 C111.3111,28.2245 110.7811,28.7885 110.3211,29.9145 L109.6021,29.9145 L109.6021,6.3345 C109.6021,4.8335 109.3931,3.7585 108.9731,3.1085 C108.5531,2.4585 107.8461,2.1335 106.8531,2.1335 L106.8531,1.6645 L112.2901,0.8205 L112.2901,14.2015 Z" id="Fill-13" fill="#FFFFFF"></path>
                    <path d="M112.2901,20.2715 C112.2901,21.7005 112.3601,23.0165 112.5011,24.2185 C112.6421,25.4205 112.8231,26.2945 113.0461,26.8425 C113.3151,27.4965 113.7171,28.0105 114.2501,28.3845 C114.7831,28.7585 115.3901,28.9455 116.0691,28.9455 C117.4991,28.9455 118.6801,28.1715 119.6111,26.6225 C120.5431,25.0735 121.0091,23.1035 121.0091,20.7125 C121.0091,19.4575 120.8561,18.2655 120.5521,17.1365 C120.2471,16.0075 119.8131,15.0495 119.2511,14.2615 C118.8061,13.6075 118.3131,13.1095 117.7741,12.7695 C117.2351,12.4285 116.6851,12.2585 116.1221,12.2585 C115.4421,12.2585 114.8101,12.4955 114.2241,12.9695 C113.6381,13.4435 113.2041,14.0615 112.9231,14.8225 C112.5011,15.9445 112.2901,17.7605 112.2901,20.2715 Z M112.2901,14.2015 C112.7841,13.5125 113.2551,13.0015 113.7021,12.6705 C114.6081,12.0215 115.6921,11.6955 116.9521,11.6955 C118.7411,11.6955 120.3001,12.3425 121.6301,13.6365 C123.2781,15.2245 124.1031,17.4645 124.1031,20.3595 C124.1031,23.2535 123.3111,25.5355 121.7311,27.2025 C120.3641,28.6565 118.6121,29.3835 116.4771,29.3835 C115.3561,29.3835 114.4071,29.2095 113.6301,28.8635 L112.6391,28.4045 C112.3671,28.2845 112.1261,28.2245 111.9131,28.2245 C111.3111,28.2245 110.7811,28.7885 110.3211,29.9145 L109.6021,29.9145 L109.6021,6.3345 C109.6021,4.8335 109.3931,3.7585 108.9731,3.1085 C108.5531,2.4585 107.8461,2.1335 106.8531,2.1335 L106.8531,1.6645 L112.2901,0.8205 L112.2901,14.2015 Z" id="Stroke-15" stroke="#FFFFFF" stroke-width="1.019"></path>
                    <path d="M131.2442,4.4771 C130.7792,4.4771 130.3942,4.3101 130.0912,3.9761 C129.7872,3.6411 129.6352,3.2201 129.6352,2.7111 C129.6352,2.2171 129.7892,1.7991 130.0992,1.4571 C130.4092,1.1171 130.7912,0.9461 131.2442,0.9461 C131.6972,0.9461 132.0782,1.1171 132.3892,1.4571 C132.6982,1.7991 132.8532,2.2171 132.8532,2.7111 C132.8532,3.2201 132.7012,3.6411 132.3972,3.9761 C132.0942,4.3101 131.7092,4.4771 131.2442,4.4771 Z M127.5412,12.4141 L132.6662,11.6961 L132.6662,23.2541 L132.6832,24.7741 C132.6832,25.6811 132.7302,26.3441 132.8262,26.7641 C132.9202,27.1841 133.1032,27.5341 133.3752,27.8131 C133.7052,28.1741 134.3142,28.4471 135.1992,28.6331 L135.1992,29.0391 L127.3572,29.0391 L127.3572,28.6331 C128.0642,28.5271 128.5722,28.3771 128.8802,28.1841 C129.1872,27.9901 129.4352,27.6611 129.6252,27.1941 C129.7542,26.8881 129.8462,26.4251 129.8982,25.8051 C129.9512,25.1851 129.9782,24.2891 129.9782,23.1161 L129.9782,18.1781 C129.9782,16.8061 129.9492,15.8431 129.8902,15.2901 C129.8302,14.7371 129.6992,14.2871 129.4982,13.9401 C129.2972,13.5671 129.0532,13.2971 128.7682,13.1311 C128.4842,12.9641 128.0742,12.8611 127.5412,12.8211 L127.5412,12.4141 Z" id="Fill-17" fill="#FFFFFF"></path>
                    <path d="M131.2442,4.4771 C130.7792,4.4771 130.3942,4.3101 130.0912,3.9761 C129.7872,3.6411 129.6352,3.2201 129.6352,2.7111 C129.6352,2.2171 129.7892,1.7991 130.0992,1.4571 C130.4092,1.1171 130.7912,0.9461 131.2442,0.9461 C131.6972,0.9461 132.0782,1.1171 132.3892,1.4571 C132.6982,1.7991 132.8532,2.2171 132.8532,2.7111 C132.8532,3.2201 132.7012,3.6411 132.3972,3.9761 C132.0942,4.3101 131.7092,4.4771 131.2442,4.4771 Z M127.5412,12.4141 L132.6662,11.6961 L132.6662,23.2541 L132.6832,24.7741 C132.6832,25.6811 132.7302,26.3441 132.8262,26.7641 C132.9202,27.1841 133.1032,27.5341 133.3752,27.8131 C133.7052,28.1741 134.3142,28.4471 135.1992,28.6331 L135.1992,29.0391 L127.3572,29.0391 L127.3572,28.6331 C128.0642,28.5271 128.5722,28.3771 128.8802,28.1841 C129.1872,27.9901 129.4352,27.6611 129.6252,27.1941 C129.7542,26.8881 129.8462,26.4251 129.8982,25.8051 C129.9512,25.1851 129.9782,24.2891 129.9782,23.1161 L129.9782,18.1781 C129.9782,16.8061 129.9492,15.8431 129.8902,15.2901 C129.8302,14.7371 129.6992,14.2871 129.4982,13.9401 C129.2972,13.5671 129.0532,13.2971 128.7682,13.1311 C128.4842,12.9641 128.0742,12.8611 127.5412,12.8211 L127.5412,12.4141 Z" id="Stroke-19" stroke="#FFFFFF" stroke-width="1.019"></path>
                    <path d="M137.4942,1.5396 L142.6192,0.8206 L142.6192,23.2316 L142.6372,24.7576 C142.6372,25.6676 142.6832,26.3336 142.7782,26.7556 C142.8732,27.1776 143.0562,27.5286 143.3272,27.8106 C143.6572,28.1716 144.2652,28.4456 145.1502,28.6336 L145.1502,29.0396 L137.3072,29.0396 L137.3072,28.6336 C138.0152,28.5266 138.5232,28.3756 138.8322,28.1816 C139.1392,27.9876 139.3882,27.6566 139.5772,27.1876 C139.7072,26.8806 139.7992,26.4156 139.8512,25.7936 C139.9042,25.1716 139.9322,24.2706 139.9322,23.0936 L139.9322,7.3366 C139.9322,5.9716 139.9022,5.0086 139.8432,4.4466 C139.7832,3.8846 139.6522,3.4296 139.4512,3.0816 C139.2502,2.7066 139.0062,2.4386 138.7222,2.2786 C138.4372,2.1176 138.0272,2.0176 137.4942,1.9766 L137.4942,1.5396 Z" id="Fill-21" fill="#FFFFFF"></path>
                    <path d="M137.4942,1.5396 L142.6192,0.8206 L142.6192,23.2316 L142.6372,24.7576 C142.6372,25.6676 142.6832,26.3336 142.7782,26.7556 C142.8732,27.1776 143.0562,27.5286 143.3272,27.8106 C143.6572,28.1716 144.2652,28.4456 145.1502,28.6336 L145.1502,29.0396 L137.3072,29.0396 L137.3072,28.6336 C138.0152,28.5266 138.5232,28.3756 138.8322,28.1816 C139.1392,27.9876 139.3882,27.6566 139.5772,27.1876 C139.7072,26.8806 139.7992,26.4156 139.8512,25.7936 C139.9042,25.1716 139.9322,24.2706 139.9322,23.0936 L139.9322,7.3366 C139.9322,5.9716 139.9022,5.0086 139.8432,4.4466 C139.7832,3.8846 139.6522,3.4296 139.4512,3.0816 C139.2502,2.7066 139.0062,2.4386 138.7222,2.2786 C138.4372,2.1176 138.0272,2.0176 137.4942,1.9766 L137.4942,1.5396 Z" id="Stroke-23" stroke="#FFFFFF" stroke-width="1.019"></path>
                    <path d="M158.2305,16.5132 C158.1475,15.0972 157.9305,14.0082 157.5795,13.2432 C157.2605,12.5502 156.8375,12.0012 156.3095,11.5972 C155.7805,11.1952 155.2165,10.9922 154.6185,10.9922 C153.6075,10.9922 152.7235,11.5162 151.9655,12.5642 C151.2085,13.6112 150.7585,14.9282 150.6185,16.5132 L158.2305,16.5132 Z M150.5115,17.3452 C150.4695,18.0432 150.4495,18.5502 150.4495,18.8642 C150.4495,20.1042 150.5985,21.3172 150.8975,22.5002 C151.1975,23.6842 151.6055,24.6682 152.1225,25.4532 C152.6505,26.2522 153.3045,26.8802 154.0845,27.3362 C154.8665,27.7922 155.6845,28.0202 156.5425,28.0202 C157.1745,28.0202 157.7765,27.8912 158.3465,27.6312 C158.9155,27.3712 159.3875,27.0122 159.7635,26.5502 C160.1865,26.0462 160.5495,25.2392 160.8555,24.1292 L161.2305,24.2792 C160.9235,25.9552 160.2665,27.2202 159.2565,28.0722 C158.2495,28.9242 156.9065,29.3502 155.2315,29.3502 C153.7805,29.3502 152.5345,29.0732 151.4975,28.5192 C150.4585,27.9652 149.5795,27.1122 148.8605,25.9612 C147.8565,24.3552 147.3555,22.3802 147.3555,20.0342 C147.3555,16.8372 148.3055,14.3282 150.2075,12.5092 C151.5885,11.1882 153.1655,10.5272 154.9365,10.5272 C155.8795,10.5272 156.7535,10.7292 157.5565,11.1322 C158.3595,11.5362 159.0385,12.1202 159.5935,12.8842 C160.4565,14.0742 160.8865,15.5602 160.8865,17.3452 L150.5115,17.3452 Z" id="Fill-25" fill="#FFFFFF"></path>
                    <path d="M158.2305,16.5132 C158.1475,15.0972 157.9305,14.0082 157.5795,13.2432 C157.2605,12.5502 156.8375,12.0012 156.3095,11.5972 C155.7805,11.1952 155.2165,10.9922 154.6185,10.9922 C153.6075,10.9922 152.7235,11.5162 151.9655,12.5642 C151.2085,13.6112 150.7585,14.9282 150.6185,16.5132 L158.2305,16.5132 Z M150.5115,17.3452 C150.4695,18.0432 150.4495,18.5502 150.4495,18.8642 C150.4495,20.1042 150.5985,21.3172 150.8975,22.5002 C151.1975,23.6842 151.6055,24.6682 152.1225,25.4532 C152.6505,26.2522 153.3045,26.8802 154.0845,27.3362 C154.8665,27.7922 155.6845,28.0202 156.5425,28.0202 C157.1745,28.0202 157.7765,27.8912 158.3465,27.6312 C158.9155,27.3712 159.3875,27.0122 159.7635,26.5502 C160.1865,26.0462 160.5495,25.2392 160.8555,24.1292 L161.2305,24.2792 C160.9235,25.9552 160.2665,27.2202 159.2565,28.0722 C158.2495,28.9242 156.9065,29.3502 155.2315,29.3502 C153.7805,29.3502 152.5345,29.0732 151.4975,28.5192 C150.4585,27.9652 149.5795,27.1122 148.8605,25.9612 C147.8565,24.3552 147.3555,22.3802 147.3555,20.0342 C147.3555,16.8372 148.3055,14.3282 150.2075,12.5092 C151.5885,11.1882 153.1655,10.5272 154.9365,10.5272 C155.8795,10.5272 156.7535,10.7292 157.5565,11.1322 C158.3595,11.5362 159.0385,12.1202 159.5935,12.8842 C160.4565,14.0742 160.8865,15.5602 160.8865,17.3452 L150.5115,17.3452 Z" id="Stroke-27" stroke="#FFFFFF" stroke-width="1.051"></path>
                    <path d="M14.0733,26.9912 L18.5553,26.9912 L18.5553,29.2392 L5.0813,29.2392 L5.0813,26.9912 L9.5573,26.9912 L9.5573,1.4542 C9.5573,1.4542 2.0733,1.4342 2.0733,11.2082 L0.5733,11.2082 L0.5733,0.000199999999 L23.0863,0.000199999999 L23.0863,11.2082 L21.5573,11.2082 C21.5573,11.2082 21.1983,1.4442 14.0733,1.4442 L14.0733,26.9912 Z" id="Fill-29" fill="#FFFFFF"></path>
                </g>
            </g>
        </g>
    </g>
</svg>