<svg xmlns="http://www.w3.org/2000/svg" xmlns:xlink="http://www.w3.org/1999/xlink" width="410" height="91" version="1.1"><rect id="backgroundrect" width="100%" height="100%" x="0" y="0" fill="none" stroke="none"/><style type="text/css">
	.st0{fill:#E1251B;}
</style>

<g class="currentLayer" style=""><title>Layer 1</title><g id="svg_1" class="">
	<polygon class="st0" points="401.3000068664551,0 378.9999885559082,48 370.4999885559082,29.800003051757812 361.4000129699707,29.800003051757812 375.3000068664551,59.600006103515625 382.5999946594238,59.600006103515625 410.4000129699707,0 " id="svg_2"/>
	<g id="svg_3">
		<path d="M305.20000076293945,89.10000000000002 H323.20000076293945 v-33 c0,-7.5 4.4,-12.9 10.9,-12.9 c6.3,0 9.5,4.4 9.5,10.7 v35.2 h18.1 v-38.7 c0,-13.1 -7.9,-22.4 -20.6,-22.4 c-8.1,0 -13.8,3.5 -18.1,9.8 h-0.30000000000000004 v-8.1 H305.20000076293945 V89.10000000000002 zM269.70000076293945,28.19999999999999 c-18.9,0 -31.5,13.6 -31.5,31.4 c0,17.7 12.6,31.4 31.5,31.4 c18.9,0 31.5,-13.7 31.5,-31.4 C301.20000076293945,41.69999999999999 288.60000076293943,28.19999999999999 269.70000076293945,28.19999999999999 M269.60000076293943,77.60000000000002 c-8.6,0 -13.1,-7.2 -13.1,-18.1 c0,-11 4.5,-18.1 13.1,-18.1 c8.6,0 13.3,7.1 13.3,18.1 C282.90000076293944,70.5 278.20000076293945,77.60000000000002 269.60000076293943,77.60000000000002 M186.80000076293945,89.10000000000002 h50.7 v-14.2 h-28.7 V74.5 l27.4,-30.8 v-13.9 h-49.4 v14.2 h27.8 v0.30000000000000004 l-27.8,31 V89.10000000000002 zM163.60000076293946,89.10000000000002 h18.2 v-59.3 h-18.2 V89.10000000000002 zM121.50000076293946,89.10000000000002 h18.1 v-27.2 c0,-12.4 7.4,-17.8 18.8,-16.3 h0.30000000000000004 v-15.6 c-0.9,-0.30000000000000004 -2,-0.5 -3.7,-0.5 c-7.1,0 -11.8,3.2 -15.9,10.2 h-0.30000000000000004 v-9.8 h-17.3 V89.10000000000002 zM88.20000076293945,77.80000000000001 c-8,0 -12.9,-5.2 -13.8,-13.2 H117.20000076293945 c0.1,-12.7 -3.2,-22.9 -10.3,-29.3 c-5,-4.6 -11.6,-7.2 -19.9,-7.2 c-17.8,0 -30.2,13.6 -30.2,31.3 c0,17.8 11.8,31.5 31.4,31.5 c7.4,0 13.3,-2 18.2,-5.3 c5.2,-3.6 8.9,-8.8 10,-14 h-17.4 C97.20000076293945,75.39999999999998 93.60000076293946,77.80000000000001 88.20000076293945,77.80000000000001 M87.30000076293945,41 c6.4,0 10.8,4.7 11.5,11.7 h-24.2 C76.00000076293945,45.69999999999999 79.80000076293945,41 87.30000076293945,41 M20.60000076293946,89.10000000000002 h19 l20.6,-59.3 H42.00000076293945 l-11.6,38.1 H30.200000762939453 l-11.6,-38.1 H7.629394502828291e-7 L20.60000076293946,89.10000000000002 zM163.60000076293946,8.699999999999989 h18.2 v16.1 h-18.2 V8.699999999999989 z" id="svg_4"/>
	</g>
</g></g></svg>